<?xml version="1.0" encoding="UTF-8"?>
<svg id="BASE" xmlns="http://www.w3.org/2000/svg" viewBox="0 0 1898 2372">
  <defs>
    <style>
      .cls-1 {
        fill: #00b6ec;
      }

      .cls-2 {
        fill: #746296;
      }

      .cls-3 {
        fill: #493d5e;
      }

      .cls-4 {
        fill: #96d4ec;
      }

      .cls-5 {
        fill: #8dadb8;
      }

      .cls-6 {
        fill: #6a5a88;
      }

      .cls-7 {
        fill: #594b73;
      }

      .cls-8 {
        fill: #645581;
      }

      .cls-9 {
        fill: #5f517b;
      }

      .cls-10 {
        fill: #e7e6f4;
      }

      .cls-11 {
        fill: #48c1ef;
      }

      .cls-12 {
        fill: #b6e0ee;
      }

      .cls-13 {
        fill: #7ccef3;
      }
    </style>
  </defs>
  <path class="cls-12" d="M1356.51,902.22c-55.23-19.28-92.38-68.96-92.38-125.14v-40.58c43.68-19.72,69.31-43.72,69.31-69.6v-74.24c21.8-14.66,35.46-30.77,39.12-47.74.33-.2.66-.4.99-.6v-8.36c0-.08,0-.16,0-.25v-243.42h0c0-74.1-190.22-134.17-424.87-134.17s-424.87,60.07-424.87,134.16c0,.09,0,.18,0,.27v69.27s0,0,0,0v16.29s0,0,0,0v25.26s0,0,0,0v16.29s0,0,0,0v25.26s0,0,0,0v16.29s0,0,0,0v25.26s0,0,0,0v16.29s0,0,0,0v25.26s0,0,0,0v16.29c.33.2.66.4.99.6,3.65,16.98,17.31,33.08,39.12,47.75v74.24c0,25.88,25.63,49.87,69.31,69.59v40.59c0,56.17-37.15,105.85-92.38,125.14-69.29,24.19-110.62,54.7-110.62,87.86h0v1081.2c0,78.6,232.12,142.31,518.45,142.31s518.45-63.72,518.45-142.31V990.09c0-33.16-41.33-63.67-110.62-87.86Z"/>
  <g>
    <path class="cls-6" d="M562.49,592.66v74.24c0,25.88,25.63,49.87,69.31,69.59,8.3,3.75,17.24,7.34,26.79,10.76,7.29,2.61,14.93,5.12,22.9,7.53,24.12,7.28,51.23,13.59,80.69,18.71,54.89,9.54,117.97,14.95,185.07,14.95,114.97,0,218.16-15.93,288.66-41.19.5-.18,1-.36,1.5-.54,8.99-3.26,17.43-6.67,25.29-10.21,43.68-19.72,69.31-43.72,69.31-69.6v-73.29c.48-.32.95-.63,1.43-.95,21.8-14.66,35.46-30.77,39.12-47.74.33-.2.66-.4.99-.6v-8.36c0-.08,0-.16,0-.25v-243.42h0c0-74.1-190.22-134.17-424.87-134.17s-424.87,60.07-424.87,134.16c0,.09,0,.18,0,.27v69.27s0,0,0,0v16.29s0,0,0,0v25.26s0,0,0,0v16.29s0,0,0,0v25.26s0,0,0,0v16.29s0,0,0,0v25.26s0,0,0,0v16.29s0,0,0,0v25.26s0,0,0,0v16.29c.33.2.66.4.99.6,3.65,16.98,17.31,33.08,39.12,47.75"/>
    <path class="cls-8" d="M948.68,477.62c148.05-.02,282.11-28.55,379.77-75.09,16.06-7.66,31.11-15.81,45.1-24.41v-16.35c-35.48,22.87-79.13,42.93-129.05,58.99-84.26,27.15-186.13,43.07-295.82,43.06-76.01,0-148.26-7.64-213.5-21.37,1.06-11.18,2.31-22.34,3.7-33.48-128.21-23.04-214.76-66.53-215.07-116.43v69.27s0,0,0,0v16.29s0,0,0,0v25.26s0,0,0,0v16.29s0,0,0,0v25.26s0,0,0,0v16.29s0,0,0,0v25.26s0,0,0,0v16.29s0,0,0,0v25.26s0,0,0,0v16.29c.33.2.66.4.99.6,3.65,16.98,17.31,33.08,39.12,47.75,37.29,25.05,98.31,45.85,173.98,59.58.5.09,1,.18,1.5.27-.04-.36-.08-.72-.12-1.08-1.02-9.46-1.97-18.93-2.82-28.41,14.98,3.08,30.31,5.84,45.95,8.27,52.38,8.14,108.25,12.53,166.27,12.53,63.63,0,124.68-5.28,181.36-14.99,75.2-12.88,142.72-33.56,198.41-60.1,1.68-.8,3.34-1.61,5-2.42,13.82-6.77,26.87-13.91,39.12-21.39.33-.2.66-.4.99-.6v-16.35c-15.77,10.16-33.14,19.77-51.97,28.72-23.54,11.19-49.34,21.35-77.08,30.28-43.87,14.13-92.52,25.22-144.56,32.61-47.91,6.8-98.68,10.46-151.26,10.45-47.24,0-93.02-2.95-136.57-8.48-26.51-3.37-52.19-7.69-76.87-12.88-.75-9.28-1.4-18.57-1.94-27.86,65.99,13.81,138.82,21.46,215.38,21.46,113.5-.01,218.78-16.79,305.74-45.59,26.47-8.77,51.24-18.64,74.03-29.5,16.06-7.66,31.11-15.81,45.1-24.41v-16.35c-35.48,22.87-79.13,42.93-129.05,58.99-12.44,4.01-25.26,7.77-38.44,11.27-76.07,20.23-163.88,31.79-257.38,31.79-77.02,0-150.2-7.85-216.12-21.92-.15-3.29-.29-6.58-.41-9.87-.22-5.93-.39-11.85-.51-17.77,27.08,5.72,55.32,10.4,84.5,13.94,42.4,5.14,86.8,7.87,132.54,7.87,45.74,0,90.14-2.73,132.54-7.87,94.86-11.49,179.74-35.06,247.23-67.22,16.06-7.66,31.11-15.81,45.1-24.41v-16.35c-35.48,22.87-79.13,42.93-129.05,58.99-73.39,23.65-160.16,38.77-253.81,42.28-13.86.52-27.87.78-42.01.78-14.15,0-28.18-.26-42.05-.78-62.04-2.32-121.06-9.75-175.17-21.38-.02-2.6-.03-5.2-.03-7.79,0-6.54.11-13.07.29-19.59,66.4,14.02,139.79,21.79,216.96,21.79,148.05-.02,282.11-28.55,379.77-75.09,16.06-7.66,31.11-15.81,45.1-24.41v-16.35c-35.48,22.87-79.13,42.93-129.05,58.99-84.26,27.15-186.13,43.07-295.82,43.06-77.15,0-150.43-7.87-216.43-21.99.43-9.05,1.01-18.07,1.72-27.08,65.81,13.72,138.4,21.32,214.71,21.32Z"/>
    <path class="cls-3" d="M733.97,456.3c65.81,13.72,138.4,21.32,214.71,21.32,148.05-.02,282.11-28.55,379.77-75.09,16.06-7.66,31.11-15.81,45.1-24.41v-16.35c-35.48,22.87-79.13,42.93-129.05,58.99-84.26,27.15-186.13,43.07-295.82,43.06-76.01,0-148.26-7.64-213.5-21.37-60.3-12.69-114.6-30.56-160.33-52.38-18.48-8.81-35.53-18.26-51.03-28.25t0,0v16.29s0,0,0,0c35.27,21.68,77.39,40.49,124.81,55.78,26.85,8.65,55.39,16.16,85.34,22.41Z"/>
    <path class="cls-3" d="M731.72,497.38c66.4,14.02,139.79,21.79,216.96,21.79,148.05-.02,282.11-28.55,379.77-75.09,16.06-7.66,31.11-15.81,45.1-24.41v-16.35c-35.48,22.87-79.13,42.93-129.05,58.99-84.26,27.15-186.13,43.07-295.82,43.06-77.15,0-150.43-7.87-216.43-21.99-59.13-12.65-112.41-30.3-157.4-51.76-18.48-8.81-35.53-18.26-51.03-28.25t0,0v16.29s0,0,0,0c35.27,21.68,77.39,40.49,124.81,55.78,26.17,8.43,53.96,15.78,83.09,21.93Z"/>
    <path class="cls-3" d="M731.64,538.91c27.08,5.72,55.32,10.4,84.5,13.94,42.4,5.14,86.8,7.87,132.54,7.87,45.74,0,90.14-2.73,132.54-7.87,94.86-11.49,179.74-35.06,247.23-67.22,16.06-7.66,31.11-15.81,45.1-24.41v-16.35c-35.48,22.87-79.13,42.93-129.05,58.99-73.39,23.65-160.16,38.77-253.81,42.28-13.86.52-27.87.78-42.01.78-14.15,0-28.18-.26-42.05-.78-62.04-2.32-121.06-9.75-175.17-21.38-58.81-12.63-111.82-30.22-156.61-51.59-18.48-8.81-35.53-18.26-51.03-28.25,0,0,0,0,0,0v16.29s0,0,0,0c35.27,21.68,77.39,40.49,124.81,55.78,26.15,8.42,53.91,15.77,83.01,21.92Z"/>
    <path class="cls-3" d="M648.63,558.54c26.65,8.58,54.97,16.05,84.67,22.27,65.99,13.81,138.82,21.46,215.38,21.46,113.5-.01,218.78-16.79,305.74-45.59,26.47-8.77,51.24-18.64,74.03-29.5,16.06-7.66,31.11-15.81,45.1-24.41v-16.35c-35.48,22.87-79.13,42.93-129.05,58.99-12.44,4.01-25.26,7.77-38.44,11.27-76.07,20.23-163.88,31.79-257.38,31.79-77.02,0-150.2-7.85-216.12-21.92-14.1-3.01-27.86-6.3-41.26-9.87-42.92-11.41-82.1-25.57-116.45-41.96-18.48-8.81-35.53-18.26-51.03-28.25,0,0,0,0,0,0v16.29s0,0,0,0c33.85,20.81,74.02,38.97,119.13,53.92,1.89.63,3.78,1.25,5.69,1.86Z"/>
    <path class="cls-3" d="M648.63,600.09c27.59,8.89,56.97,16.57,87.83,22.92,14.98,3.08,30.31,5.84,45.95,8.27,52.38,8.14,108.25,12.53,166.27,12.53,63.63,0,124.68-5.28,181.36-14.99,75.2-12.88,142.72-33.56,198.41-60.1,1.68-.8,3.34-1.61,5-2.42,13.82-6.77,26.87-13.91,39.12-21.39.33-.2.66-.4.99-.6v-16.35c-15.77,10.16-33.14,19.77-51.97,28.72-23.54,11.19-49.34,21.35-77.08,30.28-43.87,14.13-92.52,25.22-144.56,32.61-47.91,6.8-98.68,10.46-151.26,10.45-47.24,0-93.02-2.95-136.57-8.48-26.51-3.37-52.19-7.69-76.87-12.88-59.94-12.61-113.97-30.34-159.53-51.98-.29-.14-.57-.27-.86-.41-18.48-8.81-35.53-18.26-51.03-28.25t0,0v16.29c.33.2.66.4.99.6,12.24,7.48,25.3,14.62,39.12,21.38,25.75,12.61,54.12,23.94,84.71,33.8Z"/>
    <path class="cls-13" d="M948.68,946.31c-249.73,0-452.18,41.8-452.18,93.36v982.66c0,.27,0,.54.02.81,0,.07,0,.13,0,.2.01.27.03.54.06.81h0c.02.27.06.54.09.81,0,.06.02.13.03.19.04.27.08.54.13.8,0,.02,0,.04.01.06.05.25.1.5.16.76.01.06.03.13.04.19.06.27.13.54.21.81,0,0,0,.02,0,.03.07.26.15.52.23.78.02.06.04.12.06.18.09.27.18.54.28.8l.02.05c.09.25.19.5.3.76.02.06.04.11.07.17.11.27.23.54.36.81,0,0,0,.02.01.02.13.27.26.54.39.81.02.04.04.07.06.11.29.56.6,1.12.93,1.67.02.03.04.06.05.09.34.57.71,1.13,1.1,1.69l.04.05c.4.58.83,1.15,1.29,1.73,0,0,0,0,0,0,.18.23.37.45.55.68.05.06.09.11.14.16.17.21.35.41.53.62.02.02.03.04.05.06.2.23.41.46.62.7.03.03.06.07.09.1,28.72,31.23,132.83,56.95,271.75,68.8l172.49,7.05c249.73,0,452.18-41.8,452.18-93.36v-982.66c0-51.56-202.45-93.36-452.18-93.36Z"/>
    <path class="cls-4" d="M948.68,2213.6c286.33,0,518.45-63.72,518.45-142.31V990.09c0-33.16-41.33-63.67-110.62-87.86-55.23-19.28-92.38-68.96-92.38-125.14v-40.58c-7.86,3.55-16.3,6.96-25.29,10.21-.43,1.73-.93,3.45-1.5,5.16v83.72c0,52.32,34,98.59,84.53,116.55,63.4,22.53,101.23,50.95,101.23,81.83v1006.97c0,73.2-212.41,132.54-474.42,132.54s-474.42-59.34-474.42-132.54v-1006.97h0c0-30.89,37.82-59.3,101.22-81.83,50.54-17.96,84.54-64.23,84.54-116.55v-88.34c-9.55-3.42-18.49-7.01-26.79-10.76v40.59c0,56.17-37.15,105.85-92.38,125.14-69.29,24.19-110.62,54.7-110.62,87.86h0v1081.2c0,78.6,232.12,142.31,518.45,142.31Z"/>
    <path class="cls-5" d="M948.68,788.44c-67.1,0-130.19-5.41-185.07-14.95-29.46-5.12-56.57-11.43-80.69-18.71,23.4,60.71,138.37,106.81,276.69,106.81s256.94-47.58,277.74-109.72c.57-1.71,1.07-3.43,1.5-5.16-.5.18-1,.36-1.5.54-70.5,25.25-173.69,41.19-288.66,41.19Z"/>
    <path class="cls-9" d="M1174.39,649.09c-65.7,13.15-143.6,20.76-227.14,20.76-76.08,0-147.48-6.3-209.28-17.35-.5-.09-1-.18-1.5-.27-75.67-13.73-136.69-34.53-173.98-59.58v74.24c0,25.88,25.63,49.87,69.31,69.59,8.3,3.75,17.24,7.34,26.79,10.76,7.29,2.61,14.93,5.12,22.9,7.53,24.12,7.28,51.23,13.59,80.69,18.71,54.89,9.54,117.97,14.95,185.07,14.95,114.97,0,218.16-15.93,288.66-41.19.5-.18,1-.36,1.5-.54,8.99-3.26,17.43-6.67,25.29-10.21,43.68-19.72,69.31-43.72,69.31-69.6v-74.24c-34.55,23.22-89.53,42.8-157.63,56.43Z"/>
    <path class="cls-7" d="M682.91,754.78c24.12,7.28,51.23,13.59,80.69,18.71-2.73-8.85-5.51-17.68-8.08-26.51-4.23-14.5-7.9-29.02-9.88-43.71-.96-7.08-1.9-14.19-2.79-21.32-1.23-9.78-2.39-19.6-3.45-29.44-.5-.09-1-.18-1.5-.27-75.67-13.73-136.69-34.53-173.98-59.58v74.24c0,25.88,25.63,49.87,69.31,69.59,8.3,3.75,17.24,7.34,26.79,10.76,7.29,2.61,14.93,5.12,22.9,7.53Z"/>
    <path class="cls-2" d="M948.68,183.77c-220.77,0-399.75,48.58-399.75,108.52h0c0,39.41,77.39,73.91,193.15,92.92,60.29,9.9,130.99,15.6,206.6,15.6,220.77,0,399.73-48.58,399.74-108.51h0c0-59.94-178.97-108.52-399.74-108.52Z"/>
    <path class="cls-9" d="M752.98,317.15c33.2,21.6,108.33,36.68,195.7,36.68,118.11,0,213.86-27.55,213.87-61.53h0c0-33.99-95.75-61.54-213.87-61.54s-213.87,27.55-213.87,61.54h0c0,8.85,6.49,17.26,18.18,24.86Z"/>
    <path class="cls-11" d="M948.68,946.31c-249.73,0-452.18,41.8-452.18,93.36,0,38.95,115.53,72.33,279.69,86.32v982.64l172.49,7.05c249.73,0,452.18-41.8,452.18-93.36v-982.66c0-51.56-202.45-93.36-452.18-93.36Z"/>
    <path class="cls-1" d="M496.5,1039.67c0,38.95,115.53,72.33,279.69,86.32,53.15,4.53,111.4,7.03,172.49,7.03,249.73,0,452.18-41.8,452.18-93.36s-202.45-93.36-452.18-93.36-452.18,41.8-452.18,93.36Z"/>
    <path class="cls-10" d="M1362.95,1552.37c1.85-67.88-1.22-135.73-.17-203.59.61-39.33,1.5-78.66,1.38-118-.05-16.84,2.94-37.07-1.49-53.5-2.79-10.35-17.18-9.65-20.3,0-5.02,15.55-3.05,35.38-3.9,51.53-2.1,39.96-3.22,79.96-4.58,119.96-2.32,67.92-8.76,135.61-10.28,203.59-.57,25.33,38.64,25.29,39.33,0Z"/>
    <path class="cls-10" d="M1366.08,1627.56c-1.07-3.82-3.01-7.14-5.8-9.96-1.52-1.18-3.05-2.35-4.57-3.53-3.52-2.04-7.32-3.07-11.39-3.08-3.11-.12-6.01.53-8.7,1.94-2.8.91-5.22,2.47-7.26,4.67-2.2,2.04-3.76,4.47-4.67,7.27-1.41,2.69-2.06,5.59-1.94,8.7.27,2,.54,4,.81,6,1.07,3.82,3.01,7.14,5.81,9.96l4.57,3.53c3.52,2.04,7.32,3.07,11.39,3.08,3.11.12,6.01-.53,8.7-1.94,2.8-.91,5.22-2.47,7.26-4.67,2.2-2.04,3.76-4.47,4.67-7.26,1.41-2.69,2.06-5.59,1.94-8.7-.27-2-.54-4-.81-6Z"/>
    <path class="cls-10" d="M1152.7,224.37c26.05,8.58,52.95,13.25,78.74,23.09,25.83,9.86,49.74,23.42,72.83,38.5,2.84,1.86,6.29-.62,6.43-3.69,1.18-27.42-37.44-38.99-58.03-47.76-30.15-12.85-65.48-23.44-98.59-20.33-5.72.54-7.16,8.28-1.38,10.19Z"/>
    <path class="cls-10" d="M1300.1,658.15c1.86,4.85,7.87,5.85,10.87,1.42,3.18-4.7,2.57-10.94,1.78-16.3-.77-5.21-1.41-10.67-5.92-13.87-2.11-1.5-5.76-.48-6.89,1.81-2.08,4.23-.63,8.5-.59,13.06.04,4.54-.91,9.57.74,13.89Z"/>
  </g>
</svg>