<?xml version="1.0" encoding="UTF-8"?>
<svg id="Layer_1" data-name="Layer 1" xmlns="http://www.w3.org/2000/svg" viewBox="0 0 32 32">
  <path d="M10.24,0c.06.01.13.03.19.05q.15,0,.29-.05s.05.02.1.05c.03-.02.06-.03.1-.05q.31-.01.43.05h.14v.1s.06,0,.08.01c.33.06.65.16.97.27-.02.06-.03.13-.05.19.03,0,.06.02.09.02.27.07.49.16.72.31.02.03.03.06.05.1.05.02.09.03.14.05v.1s.06.03.1.05v.24h.34c-.02.06-.03.13-.05.19l.1.05v.1q.06,0,.11,0t.22.1v.14s.09.03.14.05q.03.1.05.19h.1v.34q.12-.02.24-.05c-.02.08-.03.16-.05.24h.14s.01.08.02.12c0,.04.02.08.03.12.03.02.06.03.1.05.02.09.05.18.07.27q.09.37.29.69c.13.16.17.28.21.47.02.05.03.09.05.14-.02.03-.03.06-.05.1.05.02.09.03.14.05.02.08.03.16.05.24l-.05.05q.01.17.05.34s.06.03.1.05c0,.04,0,.08,0,.11,0,.04,0,.08,0,.13.05.03.09.06.14.1,0,.05-.02.1-.03.15-.02.2.02.33.08.52,0,.14.01.25-.03.38-.02.11-.01.18.02.29.08.33.11.67.14,1,.05.46.19.77.47,1.13.03.03.05.07.08.1.12.16.25.32.37.48.02.03.04.05.07.08.06.07.12.15.18.22.19.28.27.6.36.92q.48,1.71,1.32,3.25c.29.41.46.82.62,1.29-.01-.58-.24-1.06-.5-1.57-.08-.17-.16-.34-.23-.51-.13-.31-.29-.61-.45-.91-.3-.56-.49-1.13-.64-1.75-.16-.62-.46-1.04-.91-1.49-.05-.05-.09-.1-.14-.14-.11-.11-.22-.23-.34-.34.14-.06.19-.05.34,0,.37.19.69.38,1,.66.03.03.07.06.1.09.28.25.41.53.57.87.22.47.47.92.74,1.36.27.44.51.89.7,1.37.04.11.09.21.14.32.07.15.12.3.15.47q.01.06.02.12c.04.41,0,.79-.06,1.2,0,.05-.02.1-.02.14-.03.15-.05.3-.08.45-.02.1-.03.2-.05.3q-.4,2.29-1.07,2.84s-.05.04-.08.05l-.05-.1s-.05.02-.08.03c-.32.11-.61.13-.95.15-.15.01-.28.03-.42.07-.17.04-.22.04-.37,0,.2-.2.48-.19.75-.22.34-.04.57-.18.84-.39.17-.13.3-.17.51-.16-.02.03-.03.06-.05.09q-.06.11-.05.25c.2-.21.26-.42.34-.69.01-.04.02-.08.04-.12.17-.57.26-1.09.24-1.69,0,.03,0,.06,0,.09,0,.04,0,.08-.01.12,0,.04,0,.08-.01.12q-.02.1-.12.2s-.02-.06-.03-.1q-.12-.34-.4-.57c-.08-.02-.16-.03-.24-.05-.03.16-.06.32-.1.48q-.24-.05-.34-.14-.1,0-.19.05-.07.09-.12.21c-.15.29-.33.4-.62.55-.43.23-.65.54-.91.94-.27.41-.58.72-1.05.9-.41.08-.7.12-1.09-.06-.16-.01-.32,0-.48,0,.06.18.13.22.28.34.04.03.08.07.12.1.12.08.23.14.37.18.02-.05.03-.09.05-.14.04,0,.07,0,.11,0,.16-.01.32-.02.48-.03.06,0,.11,0,.17-.01q.08,0,.16-.01s.1,0,.15-.01c.22-.03.38-.1.54-.25.17-.15.35-.25.56-.34.03-.02.06-.03.08-.05.2-.11.4-.18.63-.25.35-.11.67-.27.99-.46.24-.14.38-.18.65-.11.02.08.03.16.05.24-.05,0-.09,0-.14.01-.25.04-.47.14-.66.3-.12.09-.24.12-.38.16-.34.1-.68.22-1.01.34-.04.02-.08.03-.12.05-.2.08-.35.17-.51.32-.45.36-1.09.33-1.63.33q-.09,0-.19,0c-.44,0-.83-.02-1.19-.31-.22-.18-.44-.22-.72-.26-.37-.06-.67-.15-.96-.41-.02-.03-.05-.07-.07-.1q-.07-.11-.26-.12c-.12-.03-.18-.04-.27-.13-.06-.1-.12-.2-.17-.31q-.03-.07-.07-.14-.18-.37-.12-.53c.03.05.06.1.09.15.11.16.21.22.38.3.31.14.48.37.68.64.24.27.57.3.91.34.19,0,.39,0,.58,0,.31,0,.6,0,.91.07.36.09.64,0,.95-.17.17-.1.32-.22.48-.34.04-.03.09-.07.13-.1.37-.29.68-.6.93-1,.16-.24.37-.38.62-.53.4-.26.52-.61.62-1.05q.01-.05.02-.11c.06-.27.11-.55.15-.82q.02-.12.07-.21.22.03.31.12s.04.07.06.1c.14.22.3.42.47.62.03.03.05.06.08.09.06.07.13.14.19.22-.08-.34-.22-.54-.45-.8-.18-.21-.33-.44-.48-.67-.06-.08-.11-.16-.17-.25h-.05c-.01.05-.03.1-.04.15q-.06.18-.13.29c-.09.17-.11.34-.14.53-.1.69-.36,1.38-.9,1.85h-.14c.06-.19.13-.37.21-.55.2-.49.37-.96.45-1.48q0-.05.02-.11c.09-.61.05-1.23-.19-1.8-.21-.53-.32-1.08-.45-1.62-.16-.69-.34-1.33-.73-1.93-.03-.05-.07-.1-.1-.16-.02-.04-.05-.07-.07-.11.14.38.28.75.44,1.11.11.25.19.49.24.76.03.14.08.28.13.41.11.36.17.73.22,1.11.04.24.08.48.15.72.27.95,0,2.38-.45,3.24-.13.2-.28.39-.43.58-.11.14-.21.28-.32.42-.37.49-.8.7-1.41.8-.17.01-.34.02-.5.03-.24.03-.4.13-.6.26-.51-.03-.87-.25-1.28-.52q-.25-.17-.53-.29c-.19-.07-.33-.17-.48-.28t-.09-.06c-.08-.06-.17-.12-.25-.19-.03-.02-.05-.04-.08-.06-.18-.14-.28-.26-.35-.47-.02-.15-.02-.29-.01-.44,0-.04,0-.08,0-.12q0-.29.11-.45s0,.06.01.09c0,.04.01.08.02.13q.01.06.02.12c.06.21.13.4.31.53.09.05.19.09.29.13.31.14.57.3.83.53.21.19.43.35.66.5.09.06.17.13.25.21.17.12.25.14.45.12.21-.04.41-.11.61-.19.14-.05.27-.1.41-.14.41-.13.76-.24,1.07-.55.04-.03.07-.07.11-.1.91-.92,1.14-2.43,1.14-3.66,0-.4-.03-.8-.07-1.2,0-.04,0-.08-.01-.11-.12-1.1-.38-2.39-1.02-3.3.01.03.03.07.04.1.32.82.49,1.57.51,2.45,0,.07,0,.14,0,.21,0,.03,0,.07,0,.1,0,.27.05.53.11.8.05.26.07.51.07.77,0,.04,0,.08,0,.13-.01.61-.13,1.17-.4,1.72-.02.05-.05.1-.07.15-.2.4-.45.75-.74,1.09q-.05.06-.1.12c-.39.43-.89.64-1.45.76q-.13.03-.29.11c-.15.07-.21.06-.36.01t-.07-.2c.05-.38.44-.59.72-.81.26-.21.48-.45.69-.7.07-.08.15-.16.22-.24.34-.34.52-.66.69-1.12.02-.05.05-.11.07-.16.2-.51.21-1.02.22-1.57,0-.13,0-.27,0-.4q.15-1.99-.44-3.78s-.06-.05-.09-.08c0,.05.02.09.03.14.01.06.03.13.04.19.01.06.02.12.04.19.12.68.15,1.35.15,2.04,0,.04,0,.09,0,.13,0,.71-.03,1.4-.16,2.09,0,.04-.01.07-.02.11-.12.7-.47,1.24-.93,1.78q-.11.12-.2.25c-.19.27-.36.4-.66.53-.16.08-.24.2-.35.34-.17.12-.32.11-.53.1-.18-.05-.34-.13-.51-.2q-.2-.08-.4-.05c-.08.05-.16.1-.24.16q-.13,0-.24-.05c-.22-.22-.39-.45-.4-.78,0-.24.06-.47.11-.71.08.12.15.24.21.37.02.04.04.08.06.13.04.08.07.15.11.23q.05.1.15.23.17.05.34.05c-.05-.15-.09-.19-.23-.27-.18-.13-.24-.24-.33-.44-.03-.06-.06-.11-.08-.17-.07-.18-.1-.32-.12-.51.11.1.17.18.22.32.1.21.24.32.43.46.11.08.21.17.31.26.17.15.31.27.52.35.39-.1.63-.44.89-.73.11-.13.23-.25.35-.37.56-.59,1.23-1.31,1.26-2.16-.02.04-.05.09-.07.13-.21.39-.44.7-.75,1.02-.05.06-.11.12-.16.18-.45.5-1.03,1.13-1.73,1.23-.41-.02-.76-.31-1.06-.56-.18-.21-.26-.48-.35-.74-.01-.03-.02-.06-.03-.1-.03-.08-.05-.17-.07-.25.02-.03.03-.06.05-.1.06.07.13.14.19.22.04.04.08.09.12.13.1.11.2.23.29.34.14.16.26.28.45.37.25-.03.42-.19.61-.35.11-.08.21-.14.33-.2.21-.11.32-.25.45-.44.19-.24.44-.44.67-.63.55-.5.71-1.19.79-1.9q0-.08.02-.17c.11-.97.16-1.91-.05-2.87t.08.02c.46.12.91.04,1.36-.12.04-.19.05-.32,0-.51-.05-.19-.02-.27.05-.45-.03-.05-.06-.09-.1-.14-.03,0-.07.01-.11.02-.16.03-.32.06-.48.1q-.08.02-.17.03c-.36.07-.71.12-1.07.14t.04.1c.1.24.19.47.25.71,0,.04.02.07.03.11.22,1,.15,2.38-.19,3.34-.04.12-.08.25-.12.38-.03.1-.06.2-.09.3-.01.05-.03.09-.04.14-.1.3-.21.45-.48.61-.17.08-.34.16-.52.23-.07.03-.14.06-.21.08-.03.01-.07.03-.1.04-.25.1-.49.22-.72.37-.42.06-.94,0-1.32-.17-.27-.27-.44-.6-.5-.98q.02-.11.05-.19s.04.06.06.1c.23.35.45.59.87.68.14,0,.2,0,.31-.07.06-.06.13-.12.19-.18.23-.23.53-.38.81-.54.65-.38,1.06-.9,1.3-1.61.05-.2.09-.39.13-.59.02-.1.04-.2.06-.3q.01-.07.03-.13.02-.12.05-.21c.15-.67.06-1.5-.12-2.16,0,.04.01.09.02.13.14.96,0,1.77-.3,2.68-.04.11-.07.23-.11.34-.2.63-.52,1.25-1.11,1.58-.04.02-.08.03-.12.05.07-.22.16-.43.27-.63.37-.72.66-1.46.88-2.24q.02-.08.04-.16c.05-.17.09-.34.14-.51.01-.05.03-.11.05-.16.13-.49.16-.96.03-1.46q-.07-.3-.07-.45.07-.03.14-.05c.17-.06.34-.13.51-.19.11-.04.23-.08.34-.13q.58-.19,1.07-.54.04-.12.05-.24s-.09-.03-.14-.05c-.02-.13-.03-.25-.05-.38-.05-.02-.09-.03-.14-.05.01-.03.03-.05.04-.08,0-.04,0-.07,0-.11-.08-.08-.16-.16-.24-.24q-.03-.1-.05-.19s-.05.05-.08.07c-.26.24-.52.46-.8.67q-.05.04-.1.08c-.17.13-.34.25-.52.36q-.31.18-.51.46,0,.11.02.23c.05.52-.2,1.12-.35,1.61-.01.03-.02.07-.03.1-.15.49-.32.97-.51,1.45q-.03.08-.06.16c-.17.41-.39.73-.72,1.04-.04.04-.09.09-.14.13-.3.29-.54.5-.97.55-.16-.02-.25-.06-.37-.16v-.19s.08.02.12.02q.08.01.16.03.08.02.15.03c.15.01.21,0,.34-.08.1-.14.18-.28.27-.42q.07-.1.16-.15c.04-.08.09-.16.13-.24.07-.11.14-.21.23-.31.35-.45.47-.91.58-1.46.07-.33.16-.65.27-.98.1-.31.12-.59.12-.91q.01-.18.06-.34c.08-.27.08-.55.1-.83.05-.63.37-1.11.81-1.55.29-.25.59-.46.91-.67-.02-.11-.03-.22-.05-.34h-.14v-.19c-.05-.01-.1-.03-.16-.04-.11-.03-.21-.06-.32-.1.03-.08.06-.16.1-.24h-.29s0-.06-.01-.09q-.03-.12-.18-.2s.03-.06.05-.1h-.19s-.03.07-.04.1c-.06.14-.12.27-.19.4-.27.58-.43,1.21-.54,1.84,0,.03-.01.07-.02.11-.04.24,0,.36.12.57.05.14.06.28.06.43,0,.04,0,.08,0,.12-.01.12-.04.2-.11.31q-.01-.06-.03-.12-.15-.69-.45-1.32s-.06-.03-.1-.05c.02.04.05.08.07.13.26.51.49,1.01.41,1.6-.04.12-.09.23-.14.34-.08.16-.1.31-.11.49-.04.59-.15,1.15-.29,1.73-.04.18-.07.35-.1.53-.04.19-.12.34-.22.5-.06-.18-.04-.32-.01-.5,0-.04,0-.07.01-.11.01-.11.03-.23.04-.34,0-.07.02-.15.03-.22.03-.29.07-.58.1-.87.06-.46.1-.92.13-1.38,0-.06,0-.13.01-.19.04-.64.06-1.24-.26-1.81,0,.03,0,.06,0,.08,0,.13.01.26.02.39q0,.07,0,.13.04.82-.03,1.07c-.08.33-.03.67,0,1,.02.26.02.52-.02.79-.05.36-.04.73-.05,1.09q-.02,1.03-.26,1.29c.02-.18.04-.36.07-.54.02-.17.03-.33.03-.5,0-.06,0-.12,0-.18,0-.07,0-.13,0-.2,0-.07,0-.14,0-.2,0-.14,0-.29,0-.43,0-.18,0-.36,0-.54,0-.14,0-.28,0-.42,0-.07,0-.13,0-.2,0-.34,0-.66-.09-1-.03-.16-.01-.28.03-.43.03-.03.06-.06.1-.1v-.14s-.06.06-.1.1c-.1.02-.19.04-.29.05.01.06.03.12.04.18.12.54.21,1.06.19,1.61,0,.04,0,.08,0,.13,0,.09,0,.18,0,.27,0,.13,0,.27-.01.4,0,.09,0,.17,0,.26,0,.04,0,.08,0,.12,0,.24-.03.48-.06.72h-.05c-.04-.33-.05-.66-.05-.99,0-.04,0-.08,0-.13,0-.18,0-.35,0-.53.01-.83-.04-1.7-.34-2.48-.05-.02-.09-.03-.14-.05-.02-.03-.03-.06-.05-.1.03.13.05.26.1.38,0,.11,0,.23,0,.34,0,.06,0,.12,0,.18q0,.07,0,.14h-.05s0-.07,0-.1c-.02-.35-.1-.63-.23-.95-.07-.19-.06-.33-.05-.53-.03-.1-.06-.19-.1-.29v-.19h-.19s.02.08.02.13c.03.18.02.35.01.54,0,.29.06.46.2.71.12.27.01.53-.08.8-.07.17-.15.3-.3.42h.14c.16-.2.23-.38.29-.62.05.03.09.06.14.1.03.18.01.27-.08.43-.04.05-.08.1-.11.15-.02.03-.05.06-.07.09-.14.18-.24.27-.46.34-.05.03-.09.07-.14.1-.23.14-.5.12-.77.13q-.14,0-.2.06c.08.03.16.06.24.1v.05s-.07,0-.11,0c-.05,0-.09,0-.14.01-.05,0-.09,0-.14.01-.11.01-.22.03-.33.06q.09-.19.14-.24-.15-.04-.34,0c-.1.1-.17.2-.25.32-.09.11-.16.18-.28.26-.45.33-1.04.88-1.29,1.39.26-.12.34-.19.46-.46.15-.26.42-.45.64-.64.08-.07.16-.14.24-.21.03-.03.07-.06.1-.09.11-.1.22-.21.33-.32l.14-.14c.02.16.02.26-.06.39-.07.1-.15.19-.22.28q.05-.03.1-.06.42-.25.63-.22c.06.01.12.03.18.04.1.02.19.03.29.05q.06.01.13.02s.09.01.14.02c.04,0,.09.01.13.02q.13,0,.23-.09c.1-.13.14-.24.18-.4.1-.31.19-.54.48-.72-.05.15-.09.28-.17.42-.1.21-.14.42-.19.64-.06.28-.19.53-.41.71-.23.08-.47.07-.71.02-.22-.04-.45-.03-.68-.02q-.05-.12-.1-.24c-.34.09-.63.25-.94.43q-.25.15-.35.15c-.02.08-.03.16-.05.24.03-.02.05-.04.08-.06.27-.2.49-.3.83-.27.16.03.31.07.47.11.19.04.38.06.57.07q.11.01.21.04c.11.02.18.01.29,0q.19-.02.27.04c.08.1.1.18.12.31,0,.04.02.08.02.12.04.32.01.61-.06.92,0,.04-.02.07-.03.11-.06.25-.16.45-.31.66-.11.19-.13.39-.16.61q-.04.13-.16.23-.12.05-.27,0s.03-.07.05-.1c.05-.14.06-.24.06-.38.02-.28.12-.42.29-.63.28-.4.3-.84.28-1.32-.2-.1-.35-.1-.57-.09-.38.01-.72-.06-1.09-.16q-.41-.11-.82-.02-.11.07-.15.17.06,0,.13,0c.06,0,.11,0,.17.01.06,0,.11,0,.17.01q.16.02.27.07c.21.08.44.1.66.13.31.05.61.12.81.37.08.27.11.59,0,.86t-.05.08c-.11-.11-.11-.15-.14-.3-.04-.2-.1-.32-.25-.46-.12-.06-.23-.07-.37-.08-.27-.04-.5-.11-.74-.21-.3-.12-.58-.19-.9-.19q-.11.16-.14.34s.09.06.14.1c-.06.17-.13.29-.24.43v-.38c-.09.09-.09.24-.1.37.01.17.13.23.25.35.05.17.07.35.1.53q.09.02.18.04c.14.04.19.05.3.16t.05.09c-.06.03-.12.05-.17.08-.22.11-.34.25-.48.44-.28.35-.61.69-1.05.82-.22.02-.39-.05-.56-.19-.28-.3-.44-.65-.58-1.03-.01-.03-.02-.07-.04-.1-.09-.27-.15-.53-.04-.8.02-.03.05-.07.07-.1.03-.04.05-.08.08-.12q.05-.07.09-.14c.07-.12.15-.24.22-.37t.06-.09c.1-.16.19-.32.27-.49q.08-.15.22-.25v.1s.09-.03.14-.05c.03.02.06.03.1.05l.05-.1c.12-.04.21-.05.34-.05.18-.16.33-.34.48-.53,0,.19-.08.28-.19.43-.02.05-.03.09-.05.14.06-.02.13-.03.19-.05,0-.06.02-.11.03-.17.08-.33.28-.51.57-.68.23-.14.33-.32.46-.55.15-.23.36-.39.57-.57.05-.05.09-.09.13-.14.15-.15.27-.25.49-.25.19-.22.27-.38.29-.67,0-.12-.05-.19-.1-.29,0-.15.03-.29.05-.43,0-.05.01-.11.02-.17.04-.31.08-.57.22-.84.03-.08.06-.16.1-.24q-.08-.04-.17-.07c-.4-.2-.63-.52-.79-.93-.06-.21-.1-.41-.14-.62.05-.02.09-.03.14-.05v-.14h.14c.02-.11.03-.22.05-.34.08.02.16.03.24.05q.02-.07.05-.14h.1s.02-.04.04-.08c.02-.03.03-.07.05-.11.02-.03.03-.07.05-.1q.05-.09.15-.19s.07-.02.1-.02c.03,0,.06-.02.09-.02l.05-.1h.19l.05-.1s.07,0,.1-.01c.14-.03.19-.06.29-.15.17-.13.31-.15.52-.16q.09,0,.14-.05ZM10.72.2s-.03-.06-.05-.1q-.06.08-.1.19.04.11.1.19c.05-.01.1-.02.16-.04q.18-.01.28.06c.12.16.18.33.25.52.01.04.03.07.04.11.03.09.06.18.09.26q.11-.04.14-.18c.02-.05.03-.11.05-.17.06-.22.14-.41.24-.61v-.1c-.21-.09-.35-.1-.57-.05v-.14c-.09.02-.19.03-.29.05.02-.05.03-.09.05-.14-.15,0-.25.08-.38.14ZM9.24.48s-.06.05-.09.07q-.1.07-.2.07c-.02.06-.03.13-.05.19h-.1v-.1h-.1c-.04.05-.07.11-.1.16-.02.03-.04.06-.06.09-.08.34.2.75.34,1.05.02.04.04.09.06.13.14.28.28.55.46.8.14.22.18.37.19.63.01.22.03.43.06.64.02.21-.02.32-.13.5-.13.23-.17.41-.19.67h.29c.05-.09.09-.18.14-.28.03-.05.05-.1.08-.15.11-.23.13-.41.12-.67-.02-.05-.05-.11-.07-.16-.09-.21-.1-.42-.12-.64,0-.04,0-.07-.01-.11-.01-.18-.01-.27.1-.41t.1-.07s-.04-.05-.06-.07c-.41-.56-.45-1.18-.48-1.86q0-.08,0-.16s0-.09,0-.14c0-.04-.01-.08-.02-.11l-.14-.1ZM10.53.9c-.28.48-.43.86-.29,1.43.03.12.07.23.1.34.04.14.06.26.08.4.06.32.25.6.44.86.05.03.09.06.14.1,0-.05,0-.09-.01-.14,0-.3.15-.57.28-.84.28-.63.29-1.17.05-1.81q-.13-.35-.32-.66c-.27-.07-.35.11-.48.32ZM9.14,3.36s.03.07.05.1c.07.22.02.4-.04.62-.02.2.04.3.13.48h.05c.14-.43.08-.85.05-1.29q-.11,0-.24.1ZM8.9,3.36q.05.11.14.24,0,.15,0,.29s.09-.09.14-.14l-.14-.38h-.14ZM8.86,3.55c-.04.26-.06.42.05.67h.05c0-.08,0-.17,0-.25,0-.05,0-.09,0-.14q0-.14-.11-.27ZM11.49,4.17l.05.1-.05-.1ZM8.95,4.22c0,.06,0,.12,0,.18,0,.12,0,.21-.03.33-.03.16,0,.3.03.45q-.09.05-.19.1v.24c.07-.01.14-.03.21-.04q.06-.01.12-.02s.07-.02.1-.03q.06-.09.03-.18c-.05-.21-.04-.44-.05-.66-.03-.19-.07-.25-.22-.36ZM9.38,5.71c.03.08.06.16.1.24h.05v-.24h-.14ZM8.66,5.9q-.09.14-.19.29h.38c-.06-.12-.1-.19-.19-.29ZM8.04,6.14s-.03.06-.05.1h.1s-.03-.06-.05-.1ZM6.34,8.31s-.05.06-.08.09c-.03.03-.05.06-.08.09-.02.03-.04.06-.05.09.02.05.03.09.05.14.13-.15.24-.31.34-.48q-.1-.01-.17.07ZM15.94,8.91l.05.1-.05-.1ZM16.04,9.06l.05.1-.05-.1ZM16.81,9.06c.16.16.32.31.49.45.6.54.89,1.26,1.07,2.03.09.4.23.73.45,1.08.22.35.4.72.57,1.1.03.06.05.11.08.17.22.47.4.93.5,1.44h.14c.12-.24.07-.54,0-.79-.29-.84-.72-1.65-1.18-2.42-.25-.42-.43-.86-.57-1.33-.22-.68-.78-1.29-1.36-1.69q-.1-.06-.2-.05ZM16.57,9.44c.05.15.12.28.2.42.26.42.41.79.49,1.28.07.46.23.88.39,1.31.16.44.29.88.27,1.36q0,.17.04.33c.11-.04.18-.08.25-.18.08-.26.03-.51-.04-.76-.02-.06-.03-.12-.05-.18-.02-.06-.04-.13-.06-.19,0-.03-.02-.07-.03-.1q-.48-1.75-1.41-3.28h-.05ZM5.17,10.02s0,.07,0,.1q-.04.13-.16.25c-.15.15-.16.25-.17.46.08-.04.16-.09.23-.13.04-.03.09-.05.13-.08q.13-.07.21-.22c-.01-.14-.03-.26-.1-.38h-.14ZM19.58,16.05l.05.1-.05-.1Z"/>
  <path d="M10.72,1.01h.19s-.01.08-.02.12c0,.06-.02.11-.03.17l-.04.18c-.02.19.03.28.14.43.21.31.18.6.13.96-.03.14-.06.27-.12.4-.3-.47-.33-.86-.31-1.39,0-.07,0-.15,0-.22q0-.52.07-.64Z"/>
  <path d="M8.42,3.5l.1.05s-.04.03-.09.07c-.26.21-.51.42-.76.65-.1.09-.19.17-.29.25-.32.27-.45.65-.59,1.04-.03.09-.06.18-.1.27-.01.04-.03.08-.04.12-.05.11-.11.2-.19.3.22-1.21.78-1.95,1.77-2.63q.11-.06.19-.1Z"/>
  <path d="M8.71,3.5c-.1.23-.27.42-.45.59-.13.14-.21.27-.3.44-.12.23-.26.44-.42.64-.19.24-.33.49-.47.77-.09.17-.18.31-.32.43.18-.58.48-1.09.85-1.57.11-.16.21-.32.3-.49-.57.63-.95,1.29-1.29,2.06-.05-.16-.04-.19.02-.34.02-.04.03-.08.05-.11.02-.04.03-.08.05-.12.02-.04.04-.08.05-.12.23-.53.53-.94.93-1.36.03-.03.06-.07.09-.1q.69-.71.91-.71Z"/>
  <path d="M8.47,3.93c.06.18.02.21-.05.38-.03.1-.05.19-.07.29q-.03.09-.08.18c-.06.15-.04.28-.04.44q0,.32-.11.48s-.09.07-.14.1c-.05.06-.1.13-.15.19-.17.23-.32.44-.55.61-.45.35-.82.77-1.17,1.21,0-.27.26-.47.43-.67.02-.02.04-.05.06-.07.24-.27.48-.52.74-.75.32-.29.48-.53.52-.96,0-.05,0-.09,0-.14,0-.12.02-.21.05-.32-.01.03-.03.06-.04.1-.27.64-.53,1.18-1.01,1.68-.07.08-.14.15-.21.23-.07.07-.13.15-.2.22-.1.11-.19.21-.29.32-.22.25-.46.48-.69.72-.05.05-.1.1-.14.14-.02-.03-.03-.06-.05-.1-.03.05-.06.09-.1.14q-.1-.05-.14-.15c0-.23.14-.35.29-.52.02-.03.04-.05.07-.08q.2-.24.3-.34c.16-.19.31-.38.45-.58.02.03.03.06.05.1-.04.1-.09.19-.14.29l.24-.24s.06.03.1.05q-.09.23-.14.34c.56-.56.93-1.27,1.31-1.95.26-.47.53-.91.89-1.3ZM8.04,4.6l.05.1-.05-.1Z"/>
  <path d="M10.72,4.7c.25.37.28.98.21,1.41-.04.2-.09.4-.14.6-.12.56.03,1.24.17,1.79.1.41.1.92-.11,1.3-.14.21-.26.32-.51.37.02-.02.04-.05.06-.08.03-.03.05-.07.08-.1t.08-.1c.33-.49.15-1.12.05-1.66-.03-.16-.06-.33-.1-.49-.12-.61.09-1.21.24-1.79.03-.13.03-.26.03-.4,0-.05,0-.11,0-.16,0-.12-.02-.22-.05-.34,0-.11,0-.22,0-.34Z"/>
  <path d="M10.63,5.03c.12.18.12.32.1.53q-.05.16-.13.31c-.21.48-.3.99-.4,1.51h-.1c-.04-.71.09-1.28.43-1.91.07-.15.09-.28.1-.44Z"/>
  <path d="M13.26,5.42c.41.47.38,1.3.35,1.89-.03.33-.13.63-.25.94-.02.05-.04.1-.06.15q-1.16,3.09-1.96,3.59-.17.02-.36.02c-.06,0-.12,0-.19,0-.34-.04-.51-.19-.72-.44-.21-.28-.32-.56-.32-.91,0-.04,0-.08,0-.12,0-.03,0-.06,0-.09.05.02.09.03.14.05.02.04.04.09.07.13.11.21.24.31.45.41.24.05.43.03.66-.07.89-.7,1.39-1.84,1.7-2.89.11-.38.24-.73.41-1.08.22-.48.12-1.07.06-1.58Z"/>
  <path d="M10.1,7.48h.1c.07.14.07.28.09.44.02.2.05.36.13.54.16.41.11.85-.06,1.25-.12.21-.28.36-.45.53-.03.03-.07.07-.1.1q-.36.35-.62.35c.04-.33.07-.46.34-.67.19-.39.25-.78.25-1.21,0-.04,0-.07,0-.11,0-.22-.02-.43-.08-.64-.04-.16-.03-.31-.02-.48q.14.05.22.2c.16.47.11.93.05,1.42q0,.07-.02.14c-.04.26-.09.48-.21.72.25-.14.34-.25.43-.53.1-.45.04-.9-.01-1.35-.03-.24-.04-.47-.03-.71ZM9.57,10.11l-.05.1s.09-.03.14-.05c-.03-.02-.06-.03-.1-.05Z"/>
  <path d="M6.6,9.01s.09.03.14.05c.06.02.12.04.19.06.03.01.06.02.1.03.21.07.42.12.64.16.35.08.55.23.74.53.16.36.06.76-.07,1.13-.12.18-.24.29-.43.38h-.1q.08-.27.17-.35c.09-.1.1-.17.13-.3,0-.04.01-.08.02-.13,0-.04.01-.08.02-.13q0-.05.02-.11c.02-.17.04-.31-.02-.46-.21-.08-.41-.14-.63-.19-.41-.11-.72-.18-.95-.57l.05-.1Z"/>
  <path d="M23.27,9.09h.1c.24,0,.44.05.67.11v.1s-.08.03-.12.05c-.05.02-.11.04-.16.06l-.16.06q-.14.05-.18.16c.02.06.03.13.05.19-.02.02-.03.03-.05.05.02.21.06.41.12.61.05.31,0,.59-.05.89-.14.81-.05,1.53.11,2.34.09.48.18.96.16,1.45,0,.04,0,.07,0,.11,0,.09,0,.17,0,.26-.09-.16-.14-.33-.19-.51t-.03-.09c-.03-.1-.06-.2-.08-.3q-.28-1-.69-1.95c-.12-.23-.11-.45-.11-.71q0-.06,0-.12c0-.08,0-.17,0-.25,0-.12,0-.25,0-.37q0-.73.05-1.07c.01-.22-.08-.4-.22-.57-.08-.08-.17-.16-.25-.24-.03-.03-.06-.06-.1-.1.38-.09.75-.16,1.15-.16Z"/>
  <path d="M21.98,9.3c0,.13,0,.25,0,.38,0,.04,0,.07,0,.11q0,.27-.05.38c-.03.25,0,.39.11.6.21.42.22.9.27,1.36-.23-.2-.33-.41-.45-.68-.04-.08-.08-.16-.11-.25-.06-.12-.11-.25-.17-.37-.14-.3-.33-.53-.56-.78q-.1-.13-.1-.32t.14-.14v-.1c-.06-.03-.13-.06-.19-.1.12-.02.24-.03.36-.05.03,0,.07,0,.1-.01.21-.03.42-.04.64-.03Z"/>
  <path d="M17.76,9.39c.59.1,1.02.39,1.44.81.03.03.06.06.1.09.3.31.43.68.58,1.08.18.45.36.89.66,1.28.27.39.4.84.54,1.29.04.12.08.24.12.35.42,1.26.12,2.85-.46,4.02-.38.72-.79,1.19-1.58,1.45-.23.07-.43.12-.67.1.02-.08.03-.16.05-.24.05-.01.09-.03.14-.04q.77-.24,1.35-.77c.26-.56.37-1.22.5-1.82.03-.12.05-.24.08-.36.35-1.65-.08-3.02-.85-4.46-.09-.16-.17-.33-.25-.49-.06-.11-.12-.2-.19-.3-.14-.2-.25-.42-.37-.64-.26-.5-.55-1.04-1.08-1.29t-.1-.03v-.05Z"/>
  <path d="M18.53,9.49q.71.07.96.29c.08.06.16.12.24.19.04.03.08.07.13.1.07.06.14.11.21.16.51.38.77,1.11,1.06,1.66.09.18.18.35.28.53.93,1.72,1.27,3.42,1.06,5.36,0,.04,0,.08-.01.12-.09.75-.42,1.51-.85,2.13-.02.03-.04.06-.06.1-.36.56-1.11.89-1.72,1.08-.13.02-.26.02-.39.02-.05,0-.1,0-.16,0-.04,0-.08,0-.12,0,.08-.15.23-.19.38-.26q1.3-.6,2.1-1.72c.09-.33.11-.67.14-1,.02-.16.04-.31.06-.47.05-.4.06-.79.06-1.18,0-.04,0-.07,0-.11,0-.56-.03-1.09-.16-1.63q-.01-.07-.03-.13c-.17-.8-.47-1.5-.84-2.23-.02-.03-.03-.06-.05-.09t-.05-.09c-.14-.27-.25-.55-.36-.84-.1-.25-.24-.47-.4-.68-.03-.04-.05-.07-.08-.11-.38-.52-.85-.84-1.41-1.13v-.05Z"/>
  <path d="M20.59,9.49l-.05.1c-.11.02-.22.04-.34.05v.1s.07.02.11.04c.69.31,1.2,1.29,1.56,1.93.06.1.13.21.19.31,1.12,1.76,1.74,3.74,1.44,5.81,0,.03,0,.07-.01.1-.15,1.06-.6,1.95-1.45,2.63-.37.26-.76.48-1.21.54.12-.13.26-.22.41-.32.85-.56,1.42-1.14,1.63-2.15.14-.76.21-1.54.17-2.32,0-.04,0-.08,0-.12-.07-1.3-.62-2.78-1.26-3.91-.02-.04-.05-.08-.07-.12-.29-.52-.6-1.02-.97-1.5-.03-.05-.07-.1-.1-.15-.37-.5-.85-.72-1.43-.91v-.05q.06,0,.12,0t.16,0,.16,0,.18-.05c.11-.01.22-.02.33-.03q.09,0,.18-.01.15,0,.25.04Z"/>
  <path d="M24.61,9.49c.27.02.48.14.71.27.04.02.08.04.11.06.09.05.18.1.28.15-.04.04-.07.07-.11.11q-.5.49-.67,1.14c0,.18.03.35.06.52.02.25,0,.46-.07.71-.07.28-.1.55-.12.84-.02.31-.06.6-.15.9-.16.57-.19,1.16-.21,1.75-.04,1.27-.17,3.14-1.14,4.09-.12.07-.24.13-.36.19-.03.02-.06.03-.1.05q-.24.11-.4.06s.08-.07.12-.11c1.24-1.11,1.35-2.38,1.44-3.97,0-.14.01-.28.02-.42,0-.05,0-.1,0-.15,0-.3-.03-.59-.08-.89-.06-.5-.01-1,.05-1.49.05-.43.08-.85.09-1.28,0-.04,0-.09,0-.13,0-.21,0-.43,0-.64,0-.08,0-.16,0-.24,0-.04,0-.07,0-.11,0-.26.07-.41.22-.63q.05-.12.07-.24c.05-.19.12-.35.21-.52Z"/>
  <path d="M6.32,9.54c.2.02.3.09.44.23.12.09.25.12.39.16.24.08.47.21.7.33.03.5-.06.86-.38,1.25-.12.12-.23.15-.39.19-.14.07-.17.19-.23.33-.08.15-.18.21-.33.28-.29.06-.5.04-.79-.04-.03,0-.07-.02-.1-.03-.09-.02-.17-.05-.26-.08l-.05-.1s.05-.03.08-.05c.22-.14.39-.28.56-.48.25-.3.57-.45.93-.57q.13-.05.17-.22c.01-.05.02-.11.03-.16l.14.05q.02.33.05.67c.13-.31.23-.53.15-.86-.13-.24-.39-.34-.63-.46q-.38-.18-.47-.31v-.14Z"/>
  <path d="M25.91,10.16c.21.09.32.22.48.38q-.05.14-.18.22c-.31.2-.49.57-.6.91-.06.28-.06.57-.07.86,0,.24-.04.46-.11.69-.02.06-.03.12-.05.18-.13.48-.27.96-.42,1.45-.01.05-.03.09-.04.14q-.02.06-.04.13c-.08.29-.09.57-.11.86-.01.24-.05.46-.12.69h-.05c-.05-1.08.11-2.21.43-3.24.16-.52.18-.95.06-1.48-.05-.29,0-.51.15-.76.1-.14.22-.27.34-.4.17-.19.24-.38.3-.62Z"/>
  <path d="M26.62,11.07c.18.14.35.29.5.45.02.02.05.05.07.07.08.16.04.26,0,.43-.07.13-.16.25-.25.37-.2.27-.33.52-.43.85-.08.27-.24.47-.44.67-.1.11-.12.15-.13.3.01.12.03.23.06.35.01-.02.03-.05.04-.07.11-.18.23-.35.37-.52.14-.17.21-.33.28-.54.11-.32.28-.48.54-.69.15-.13.23-.26.31-.44.13.19.24.37.24.6-.1.21-.27.33-.48.41-.18.11-.25.23-.36.4-.07.11-.15.21-.24.31-.28.31-.52.62-.7,1.01t-.1-.1c-.34.52-.51,1.03-.67,1.63q-.59,2.22-1.48,3.07c0-.16.02-.2.1-.33.55-.98.9-2.02,1.03-3.14.08-.69.22-1.2.62-1.79.12-.19.12-.34.13-.55,0-.06,0-.12,0-.18,0-.13,0-.25,0-.38.01-.51.1-.93.42-1.34.03-.04.06-.08.1-.13.03-.04.06-.08.09-.12.1-.13.18-.25.25-.39q.09-.18.14-.23Z"/>
  <path d="M27.96,13.46c.07.13.12.24.14.38q.01.08.03.17c0,.37-.34.67-.58.91-.22.2-.45.38-.69.56-.09.08-.16.16-.23.25-.13.17-.27.21-.47.28-.25.09-.38.15-.5.39-.02.04-.03.08-.05.11q-.03.06-.05.12c-.1.26-.19.52-.28.78-.02.05-.03.1-.05.15-.03.1-.06.2-.09.3-.11.33-.25.61-.44.9q-.05-.14-.02-.23s.03-.05.05-.1q.03-.05.06-.11s.04-.08.06-.12c.14-.29.26-.56.33-.88.08-.35.21-.65.37-.97.11-.22.19-.42.26-.66.09-.31.23-.4.51-.57.26-.19.46-.44.66-.68.3-.36.64-.68.98-1.01Z"/>
  <path d="M28.11,15.19c0,.22,0,.37-.1.57-.04,0-.08,0-.13,0q-.31,0-.59.12c-.07.09-.13.17-.19.27-.19.25-.38.28-.67.34-.21.06-.32.17-.48.33-.03-.02-.06-.03-.1-.05.2-.38.36-.59.77-.72.28-.1.39-.27.55-.51.1-.14.18-.2.35-.23q.07-.01.14-.02c.15-.02.3-.09.45-.09Z"/>
  <path d="M27.96,16.24q-.05.48-.14.62c-.09.03-.18.05-.28.06q-.11.03-.19.13c-.13.12-.22.14-.39.17-.16.03-.27.06-.41.14-.14.08-.24.1-.4.12-.4.06-.59.24-.85.55-.02.03-.04.05-.07.08h-.05c-.03-.25,0-.4.16-.59.27-.26.63-.4.97-.55.1-.05.2-.1.29-.15.17-.09.33-.16.51-.23.21-.09.42-.19.63-.29q.13-.06.22-.06Z"/>
  <path d="M19.2,16.96q.02.05.03.11t.19.22.13.28c0,.05,0,.1-.01.16q-.11.03-.24.05-.09-.06-.14-.14v-.1c-.34-.03-.54.06-.83.24q-.06.04-.12.07c-.27.16-.49.34-.72.56-.3.27-.61.39-1.01.38q.14-.1.25-.15c.28-.15.49-.33.7-.55.13-.13.26-.25.4-.36.09-.08.16-.16.24-.25.29-.29.73-.53,1.14-.5Z"/>
  <path d="M27.63,17.34q0,.11-.05.24c-.12.09-.24.15-.38.19-.04,0-.08-.02-.12-.02-.16-.03-.25,0-.4.06-.18.06-.34.12-.53.15-.23.05-.4.16-.59.29-.06.04-.11.07-.17.11-.04.03-.08.05-.12.08.07-.19.15-.32.29-.47.03-.04.07-.07.1-.11.15-.16.29-.15.51-.18.25-.03.45-.09.69-.2.14-.03.27-.05.41-.08.12-.02.23-.07.36-.07Z"/>
  <path d="M21.5,17.44h.05c.03.95-.19,1.53-.81,2.25-.03.04-.07.08-.1.12-.44.48-1.03.72-1.68.75-.12,0-.25,0-.37,0-.02-.06-.03-.13-.05-.19.06,0,.11-.02.17-.02.78-.12,1.44-.28,1.94-.93.13-.2.24-.41.35-.62.03-.05.06-.11.09-.16.2-.38.37-.75.43-1.18Z"/>
  <path d="M18.93,17.63c.12.05.19.09.27.19v.1s-.06,0-.09,0c-.28.02-.45.06-.67.22-.15.1-.31.15-.48.22q-.1.04-.2.09c.02-.13.04-.18.14-.27.13-.09.26-.17.39-.25.04-.03.08-.06.13-.09q.31-.2.52-.2Z"/>
  <path d="M26.38,18.01c.06,0,.11,0,.17,0q.06,0,.13,0v.34c.26-.02.38-.07.57-.24.05-.02.09-.03.14-.05.16.24.15.51.14.8,0,.27.06.51.12.77.03.17,0,.28-.02.45.01.1.03.2.04.3.05.35.06.7.06,1.05,0,.05,0,.1,0,.16,0,.3-.03.58-.09.88-.04.29-.05.59-.05.88,0,.06,0,.13,0,.19,0,.16,0,.31-.01.47h-.05q-.01.09-.03.19c-.01.08-.03.17-.04.25,0,.04-.01.08-.02.12-.03.22-.08.43-.16.64h-.19c-.13-.3-.23-.6-.3-.92-.03-.14-.08-.28-.13-.42q-.07.02-.14.05t-.01-.17c-.04-.45-.11-.8-.31-1.21-.1-.24-.14-.48-.16-.73-.01.03-.03.06-.04.09q-.05.1-.15.15c-.6.05-1.12-.02-1.6-.4q-.08-.07-.22-.27c-.02.17-.03.35-.05.53q-.45.07-.91.14.19-.19.33-.27c.22-.17.32-.4.44-.64.2,0,.28.03.45.11.61.26,1.14.29,1.8.27.02-.21.03-.41.05-.62-.07-.01-.15-.03-.22-.04-.14-.03-.26-.05-.39-.11-.15-.06-.24-.06-.4-.04-.13.06-.25.12-.37.19q-.11.05-.25,0,.65-.46,1.1-.38s.1.02.15.03c.2.02.35-.03.52-.13.12-.14.18-.26.24-.43-.03,0-.07-.01-.1-.02-.04,0-.09-.02-.13-.02-.04,0-.09-.01-.13-.02-.13-.04-.18-.07-.26-.18v-.1s.06,0,.09,0c.3.01.57,0,.82-.2.12-.19.16-.4.14-.62-.08.02-.16.03-.24.05l-.1-.19h.29l.05-.1s-.1,0-.15.01q-.19-.01-.33-.14-.14-.14-.33-.12c-.45.09-.78.33-1.12.62-.29.24-.59.44-.94.58l-.1-.05c.26-.3.56-.51.88-.73.03-.02.06-.04.1-.06.03-.02.06-.04.09-.06.08-.06.15-.13.22-.2.08-.06.17-.12.26-.17.04-.03.09-.06.14-.09.24-.14.41-.19.7-.18ZM23.94,21.22l.05.1-.05-.1Z"/>
  <path d="M26.39,18.69c.14.11.22.19.28.37,0,.03,0,.07,0,.1-.03-.02-.07-.05-.1-.07-.16-.08-.25-.08-.43-.07l-.05-.05c-.44-.07-.71.02-1.06.27-.03.02-.05.04-.08.06-.18.12-.33.19-.54.25-.05-.02-.09-.03-.14-.05.04-.02.07-.04.11-.06.24-.14.47-.27.68-.45.34-.27.9-.52,1.32-.29Z"/>
  <path d="M11.49,19.21c.12.15.22.31.32.47.18.27.39.58.69.73v.1c-.38.05-.59-.04-.9-.25q-.1-.08-.15-.18c0-.1,0-.2,0-.3q0-.08,0-.16c0-.14.02-.26.05-.4Z"/>
  <path d="M26.38,19.26q.08.1.14.19s-.07,0-.1,0c-.15,0-.31,0-.46,0-.05,0-.11,0-.16,0-.39.01-.66.1-1,.28-.15.06-.3.12-.46.18-.04.01-.08.03-.11.05q-.28.11-.38.11c-.02-.08-.03-.16-.05-.24.04,0,.07-.02.11-.03.32-.09.61-.2.91-.34.27-.12.5-.21.8-.21.04,0,.07,0,.11,0,.03,0,.07,0,.1,0h.55Z"/>
  <path d="M18.58,19.55c-.24.23-.49.33-.8.44-.04.02-.09.03-.14.05-.22.08-.44.15-.66.21-.17.05-.3.1-.43.22q-.17.14-.26.19c-.05-.19-.09-.38-.14-.57.06,0,.12-.02.19-.02.45-.06.86-.13,1.28-.3.17-.07.35-.12.53-.17.05-.02.11-.03.17-.05q.14-.03.28.02Z"/>
  <path d="M12.4,19.55s.04.04.07.05c.46.36.92.59,1.51.52.16-.05.3-.12.45-.19q.12-.05.26-.05c-.02.14-.03.28-.05.43-.08.03-.16.06-.24.1q.12.05.24.1.02.31.05.62c-.05-.04-.1-.09-.15-.13-.03-.03-.06-.05-.09-.08-.07-.06-.14-.12-.21-.19-.22-.15-.45-.13-.71-.12-.27,0-.48-.05-.7-.2-.22-.23-.43-.54-.43-.86Z"/>
  <path d="M25.71,19.64q-.1.1-.26.16c-.16.08-.22.12-.31.27.04,0,.08-.02.12-.03.18-.02.3,0,.47.05.05.01.1.03.15.04.04.01.08.02.12.03-.15.15-.32.11-.51.11-.39.01-.67.08-1.01.26-.17.07-.3.08-.48.06l-.1-.05v.34s-.07.02-.11.03c-.26.08-.49.17-.72.32-.18.11-.29.17-.51.13.05-.03.09-.06.14-.1.15-.12.21-.23.27-.4.15-.36.49-.55.83-.7.02.05.03.09.05.14.11,0,.23,0,.34-.01.03,0,.06,0,.1,0,.21-.01.34-.05.52-.17h.1v-.1q.11-.09.25-.2s.09-.07.14-.11c.16-.09.25-.1.43-.08Z"/>
  <path d="M18.43,20.03q.05.08.1.19c-.05.19-.14.3-.29.43-.12.05-.23.1-.35.14-.24.09-.44.19-.65.34-.3.06-.56.04-.86,0-.02-.08-.03-.16-.05-.24.04,0,.08.01.13.02.4.05.64.02.98-.19.13-.07.24-.11.39-.14.27-.07.41-.24.56-.46l.05-.1Z"/>
  <path d="M18.53,20.55l.1.05q.03.12.05.24l-.24.08q-.11.06-.21.2c-.14.17-.28.25-.48.33-.03.01-.06.03-.09.04-.33.15-.62.2-.97.08-.05-.02-.1-.03-.15-.05q-.12-.06-.16-.17s0-.06,0-.09c.04,0,.08.02.12.03.38.07.63.07.98-.07q.08-.03.16-.05c.32-.11.51-.19.7-.47q.11-.09.19-.14Z"/>
  <path d="M11.78,20.6s.08.06.13.09c.31.2.54.34.92.27.19-.03.37-.04.57-.04q.05,0,.1,0c.26,0,.41.06.63.21q.02.07.05.14s-.06-.02-.09-.03c-.51-.17-.91-.16-1.4.08-.11.07-.21.15-.31.23q-.07.06-.17.06t-.05-.19l.1-.1-.14-.05q-.09-.13-.18-.28c-.03-.05-.06-.1-.09-.16q-.07-.13-.07-.23Z"/>
  <path d="M18.72,20.98l.1.05c.01.14.02.22-.07.33-.45.43-.92.75-1.55.74-.27-.04-.47-.2-.68-.36.02-.05.03-.09.05-.14q.06.03.12.06t.17.08c.05.03.11.05.16.08.34.13.66.06.98-.08.3-.19.51-.49.72-.77Z"/>
  <path d="M21.45,21.03s.09.03.14.05c.06,0,.13,0,.19,0,.04,0,.07,0,.11,0h.11s.08,0,.12,0c.09,0,.19,0,.28,0q-.03.09-.1.19t-.31.13q-.08.03-.17.06-.15.05-.29.05c-.03-.16-.06-.32-.1-.48Z"/>
  <path d="M14.75,21.37h.05c.02.16.03.32.05.48-.06,0-.11,0-.17.01-.15.02-.26.05-.39.14q-.16.09-.32.09c-.13-.04-.19-.08-.28-.19.05-.02.1-.04.15-.06.12-.05.19-.09.3-.18.15-.11.29-.16.47-.21q.09-.02.14-.08Z"/>
  <path d="M13.49,21.55s.08.02.11.02q.09.03.14.13t-.11.01c-.29.04-.48.09-.71.27-.14.05-.23.05-.37.05q-.06,0-.12,0s-.04,0-.09,0c-.07-.13-.1-.19-.1-.34t.08.02c.26.04.42.03.65-.11.18-.1.31-.1.5-.06Z"/>
  <path d="M18.67,21.61l.05.1c-.11.32-.26.45-.55.62-.26.12-.51.13-.79.1q-.17-.07-.29-.14v-.05q.09,0,.17,0c.5,0,.88-.04,1.25-.42q.07-.08.16-.2Z"/>
  <path d="M23.13,21.65c-.14.12-.27.18-.45.24-.17.06-.27.1-.4.21q-.1.08-.22.09c-.18-.08-.26-.23-.36-.39.14-.04.2-.05.36-.02.24.04.46-.03.7-.09.13-.03.25-.04.39-.03Z"/>
  <path d="M16.61,21.94h.1s.02.06.03.09c.08.2.13.32.31.44.55.17,1.04-.04,1.53-.29-.03.11-.07.18-.17.24-.1.05-.19.1-.29.15-.03.02-.07.03-.1.05-.1.05-.2.09-.3.14-.03.01-.06.03-.09.04-.16.07-.3.12-.47.14-.03,0-.07,0-.11.01-.12,0-.19-.04-.29-.1v-.24h.14s-.06-.08-.09-.12c-.12-.17-.16-.35-.2-.55Z"/>
  <path d="M24.04,22.04q.06.03.12.06c.31.16.62.31.96.41.03.01.06.02.1.03q.3.09.59.02c-.02.14-.03.28-.05.43-.21-.02-.35-.08-.52-.19-.11-.06-.23-.1-.35-.14-.27-.09-.53-.21-.75-.39q-.06-.13-.1-.24Z"/>
  <path d="M13.47,22.17s.08.04.13.06c-.05.03-.09.06-.14.1-.03.03-.05.05-.08.08-.16.1-.32.08-.51.08-.04,0-.07,0-.11,0-.09,0-.18,0-.26,0-.03-.08-.06-.16-.1-.24.07,0,.14,0,.2,0q.06,0,.11,0t.21.03.23-.06.31-.03Z"/>
  <path d="M22.91,22.22s.08,0,.12,0c.1,0,.19,0,.29,0-.18.12-.38.19-.58.27-.13.06-.22.12-.33.21q-.24-.28-.24-.38c.25-.1.47-.11.74-.1Z"/>
  <path d="M23.85,22.28l.05.1c-.2.3-.44.53-.7.76q-.11.09-.16.2c-.16-.07-.24-.14-.34-.29v-.14s.04-.02.08-.04c.12-.06.24-.11.36-.17.04-.02.08-.04.13-.06.22-.1.4-.2.58-.36Z"/>
  <path d="M14.75,22.18h.05c0,.25,0,.43-.1.67-.03-.04-.06-.08-.09-.12-.1-.1-.14-.12-.28-.13-.09,0-.18,0-.27.02-.15,0-.21-.05-.32-.15l.16-.04q.05-.01.1-.03c.09-.02.18-.05.28-.07.05-.01.1-.03.16-.04.05-.01.1-.02.15-.04q.11-.02.16-.08Z"/>
  <path d="M24.04,22.37c.13.1.26.19.38.29.04.02.07.05.11.08.03.02.05.05.08.07v.1q.14.02.29.05c-.12.12-.17.13-.34.14-.19-.02-.38-.06-.57-.1.02-.21.03-.41.05-.62Z"/>
  <path d="M12.54,22.61c.17.02.27.07.4.17.17.13.29.14.51.12l.14-.05c-.05.14-.08.18-.22.25-.24.05-.52.05-.74-.06q-.03-.1-.05-.22s-.02-.08-.02-.12c0-.03-.01-.06-.02-.09Z"/>
  <path d="M18.43,22.56l.05.19s-.07.04-.1.06q-.06.04-.13.08s-.09.05-.13.08c-.09.05-.18.11-.26.17q-.09.02-.19.04s-.07.01-.11.02q-.06,0-.12.02c-.08.01-.15.02-.23.04-.04,0-.07.01-.11.02-.08.01-.16.03-.24.05-.03,0-.06.01-.1.02t-.05-.17s0-.08,0-.12c.14-.07.26-.05.42-.04.28,0,.44-.01.69-.15.07-.03.13-.07.2-.1.03-.02.06-.03.1-.05.11-.05.22-.1.33-.14Z"/>
  <path d="M14.6,22.99c.04.12.05.19.03.32q-.08.11-.17.14c-.08.01-.15.03-.23.04-.18.05-.3.15-.45.27.06-.19.12-.28.29-.38.05-.02.09-.04.14-.07.16-.09.26-.18.39-.32Z"/>
  <path d="M23.64,23.08s.08,0,.11,0c-.04.06-.09.12-.13.18q-.04.05-.08.1t-.16.17c-.15.16-.12.43-.11.64-.1-.14-.13-.25-.17-.42-.01-.05-.02-.1-.04-.14,0-.04-.02-.07-.03-.11.03-.02.05-.05.08-.07.03-.03.07-.06.11-.09.03-.03.07-.06.1-.09q.2-.18.31-.18Z"/>
  <path d="M23.99,23.14c.22.05.45.1.67.16.04.01.08.02.12.03.08.02.16.04.25.07.25.07.47.09.74.08v.38c-.32,0-.55-.07-.83-.23-.14-.07-.28-.1-.43-.13-.19-.04-.3-.08-.43-.23-.03-.04-.06-.09-.08-.13Z"/>
  <path d="M12.69,23.23c.23.11.44.21.62.38v.1l.14-.05c.02-.08.03-.16.05-.24q.1.1.11.24t-.11.24c-.16-.02-.22-.03-.34-.14q-.09,0-.19.02-.09.01-.19.03c-.08-.08-.07-.2-.07-.31,0-.05,0-.1-.01-.15,0-.04,0-.07,0-.11Z"/>
  <path d="M18.19,23.14h.1q-.08.28-.24.38t-.2.01-.12,0c-.08,0-.16,0-.25,0-.25,0-.41.05-.63.17h-.19v-.29c.06,0,.12-.01.19-.02.16-.02.31-.05.46-.09.17-.04.21-.04.39.01q.16.06.32-.04t.17-.15Z"/>
  <path d="M23.85,23.47h.1s.04.04.07.09c.14.13.27.16.45.21.12.04.2.1.29.18.06.03.13.06.19.1-.31,0-.56,0-.86-.1-.13,0-.25.03-.38.05.05-.17.09-.35.14-.53Z"/>
  <path d="M14.51,23.62h.05v.43q-.08.02-.16.04c-.16.05-.25.09-.37.2l-.1-.05c.1-.14.19-.24.34-.34.13-.09.18-.14.23-.28Z"/>
  <path d="M18.29,23.47h.05q.07.24.05.38c-.1.15-.23.25-.38.34-.17.03-.27.03-.43-.05-.12-.06-.22-.07-.35-.07q-.22-.02-.33-.07v-.14c.21-.05.36-.05.57,0,.21.05.37.06.57,0,.14-.1.18-.22.24-.38Z"/>
  <path d="M16.61,23.86s.06.07.09.11c.03.04.07.08.1.13.02.03.04.05.06.08.12.1.23.1.38.12.05,0,.1.02.16.02.04,0,.08.01.12.02q-.17.19-.33.22c-.2-.04-.26-.12-.39-.27-.04-.04-.07-.08-.11-.12q-.08-.12-.08-.31Z"/>
  <path d="M12.78,23.9c.21.02.31.11.48.24q.11.06.24.05c.12-.07.23-.15.34-.24-.02.21-.08.33-.24.48-.24.04-.37,0-.57-.14-.08-.03-.16-.07-.24-.1v-.29Z"/>
  <path d="M18.34,24h.1c.05.2.07.3-.03.49-.27.33-.6.47-1.02.54-.24.01-.39,0-.58-.15-.18-.19-.24-.34-.24-.6,0-.06,0-.12,0-.18.02.03.05.07.07.1.2.23.4.46.72.49.27,0,.45-.14.64-.31.09-.1.18-.2.27-.31.02-.02.04-.05.07-.07Z"/>
  <path d="M23.61,24h.1v.43h-.38c.04-.06.08-.13.12-.19.02-.04.04-.07.07-.11q.06-.09.1-.14Z"/>
  <path d="M24.81,24.26s.08,0,.12,0c.25.01.49.05.73.12.08.15,0,.27-.05.43-.16-.02-.26-.06-.4-.14-.27-.14-.55-.18-.84-.23q-.08-.02-.17-.03c-.14-.03-.27-.05-.41-.08v-.05c.34-.05.67-.05,1.01-.03Z"/>
  <path d="M12.73,24.38c.17.05.29.1.43.2.17.11.24.11.43.09q.15-.06.3-.15c.09-.05.18-.1.28-.14.03.02.06.03.1.05-.23.26-.5.43-.83.53-.17,0-.24-.04-.37-.14-.03-.05-.06-.09-.1-.14q-.12-.06-.24-.1v-.19Z"/>
  <path d="M18.58,24.48c.18.18.18.38.19.62-.34.11-.65.11-1.01.1.15-.12.3-.23.46-.33.17-.11.27-.2.35-.39Z"/>
  <path d="M12.73,24.67l.14.1v.1c.12.04.23.07.35.1.08.02.15.05.23.08.25.09.41.03.65-.07.11-.06.2-.13.3-.2.03.02.06.03.1.05-.09.07-.17.14-.26.21q-.07.06-.14.12c-.2.16-.3.16-.56.15-.12-.02-.23-.04-.35-.06-.06-.01-.12-.02-.17-.04-.14-.04-.21-.07-.29-.19q0-.18,0-.34Z"/>
  <path d="M23.37,24.72l.38.05v.1s.08.03.13.04q.16.06.3.13c.18.08.29.09.48.07.06-.02.11-.05.17-.07.2-.08.3-.08.5-.02q.12.07.19.14c-.02.13-.03.25-.05.38q-.19-.08-.24-.19t-.38,0c-.16.08-.31.08-.48.05-.17-.07-.35-.16-.48-.29l-.05.1c-.12.06-.25.1-.38.14-.03-.21-.06-.41-.1-.62Z"/>
  <path d="M14.55,24.91h.05v.38c-.14.07-.28.05-.43.05q.05-.05.11-.11c.1-.1.19-.21.27-.32Z"/>
  <path d="M16.61,24.96c.22.06.37.2.53.35q.15.14.34.17s.08-.01.12-.02c.04,0,.08-.01.12-.02.03,0,.06,0,.09-.01q-.09.19-.14.24c-.29.03-.56.02-.81-.14q-.24-.37-.24-.57Z"/>
  <path d="M12.78,25.2s.07.06.1.09c.42.28,1.03.29,1.52.34-.31.17-.68.15-1.02.16q-.08,0-.17,0c-.19-.02-.26-.08-.39-.21-.04-.13-.04-.24-.05-.38Z"/>
  <path d="M23.85,25.29l.11.11c.19.16.41.19.65.22v.14c-.12.07-.22.1-.36.14-.17.06-.22.09-.31.25-.03-.01-.06-.02-.08-.03q-.13-.03-.3.13c-.02-.17-.03-.35-.05-.53.15.03.29.06.43.1-.02-.05-.03-.1-.05-.16q-.05-.18-.05-.37Z"/>
  <path d="M18.61,25.38s.07,0,.11.01q-.04.32-.14.43h-.29l-.14.1q-.18-.02-.34-.05.14-.1.31-.19c.11-.06.18-.11.27-.21q.09-.08.22-.1Z"/>
  <path d="M14.51,25.68c.04.14.05.27.05.42,0,.04,0,.08,0,.12,0,.03,0,.06,0,.09-.03,0-.06,0-.1,0-.26,0-.4,0-.62.15-.13.01-.25,0-.38,0,.11-.05.21-.1.32-.15.19-.11.31-.25.45-.43.09-.1.16-.14.28-.19Z"/>
  <path d="M25.15,25.76s.09.02.13.03c.03,0,.06.02.1.03-.02.11-.03.22-.05.34-.03-.01-.07-.02-.1-.03-.18-.02-.23.02-.37.13-.05.06-.09.12-.14.17-.11.14-.15.16-.32.22q-.16,0-.28-.08c-.09-.14-.11-.24-.13-.4.03.03.05.07.08.1q.1.11.23.09c.15-.05.19-.11.27-.25.16-.27.26-.41.58-.33Z"/>
  <path d="M12.93,25.82s.08.05.11.07c.22.09.41.08.65.07q-.18.23-.29.29-.27.01-.38-.05t-.05-.19s-.02-.07-.02-.11c0-.03-.01-.05-.02-.08Z"/>
  <path d="M17.09,25.87s.04.01.08.03c.23.08.44.14.68.16-.12.14-.2.23-.38.28-.17-.05-.19-.08-.28-.23q-.1-.18-.1-.24Z"/>
  <path d="M18.58,25.96v.43c-.05.01-.1.03-.16.04q-.18.05-.32.15t-.24,0s.07-.07.1-.1c.13-.13.25-.27.36-.41.08-.09.13-.12.26-.12Z"/>
  <path d="M25.28,26.4l-.05.38c-.07,0-.14-.01-.21-.02q-.06,0-.12-.01t-.2-.06c.19-.25.26-.29.57-.29Z"/>
  <path d="M14.6,26.44c.1.15.11.19.1.37,0,.04,0,.08,0,.12,0,.03,0,.06,0,.09q-.08.02-.16.04t-.27.1c-.13,0-.25,0-.38,0q.43-.29.57-.29c.05-.14.09-.28.14-.43Z"/>
  <path d="M13.17,26.54c.06.02.11.05.17.07.19.07.34.08.55.07-.13.16-.21.23-.42.28q-.16,0-.25-.04c-.03-.13-.04-.25-.05-.38Z"/>
  <path d="M23.56,26.54q.19.08.24.19c.07.13.15.15.29.19v-.1c.11,0,.22.01.33.02.06,0,.12,0,.18.01q.16.02.3.12v.1l.19-.05-.05.1q-.23-.04-.29-.1-.22,0-.41.12c-.06.07-.11.15-.16.22l-.1-.1v-.14s-.06.02-.08.03c-.21.07-.41.13-.63.16.03-.27.1-.51.19-.77Z"/>
  <path d="M17.38,26.63c.24.02.34.09.53.24q.14.06.29.05t.24-.24s.06-.03.1-.05c-.06.26-.11.41-.34.57q-.14.01-.29-.05c-.09-.08-.18-.17-.26-.26q-.08-.09-.22-.12s-.03-.09-.05-.14Z"/>
  <path d="M18.63,26.83c.14.14.15.29.19.48-.07.03-.14.05-.21.07q-.06.02-.12.04t-.25-.02s.05-.05.07-.08c.03-.03.06-.07.09-.1.03-.03.06-.07.09-.1.08-.1.11-.17.13-.29Z"/>
  <path d="M17.52,27.11q.38.31.48.48v.1c.16.02.32.03.48.05-.18.12-.33.13-.54.16-.14.03-.21.08-.32.18-.02-.11-.03-.21-.05-.32,0-.06-.02-.12-.03-.18-.02-.16-.02-.3-.02-.46Z"/>
  <path d="M13.26,27.16q.27.03.36.12c.12.12.25.11.41.12q.14-.04.24-.1-.08.23-.19.29c-.1,0-.21,0-.31,0q-.08,0-.17,0t-.29-.05l-.05-.38Z"/>
  <path d="M25.23,27.16c.02.14.03.28.05.43-.11.01-.22.02-.32.04-.06,0-.12.01-.18.02q-.17,0-.28-.1s-.05-.06-.07-.1c.06-.01.11-.02.17-.04.21-.05.44-.25.64-.25Z"/>
  <path d="M14.65,27.4l-.05.38c-.24.02-.47.03-.72.05l.19-.1c.14-.09.28-.18.41-.27q.11-.07.16-.07Z"/>
  <path d="M23.22,27.74c.19-.01.31-.01.48.07.17.08.25.07.43.02v-.1c.05,0,.11.01.16.02.23.03.47.05.7.07-.19.29-.37.38-.71.46-.03,0-.07.01-.11.02-.03-.11-.06-.22-.1-.34t-.1.07c-.17.09-.3.1-.49.11q-.09,0-.18,0s-.09,0-.14,0c.02-.14.03-.28.05-.43Z"/>
  <path d="M18.96,27.78c.02.11.03.22.05.34q-.71.07-1.01-.05s.03-.06.05-.1q.13-.04.28-.07.52-.12.63-.12Z"/>
  <path d="M13.36,27.88q.06.03.12.07c.19.09.34.1.55.12-.16.18-.29.28-.53.34h-.19q0-.37.05-.53Z"/>
  <path d="M25.38,27.98c.02.11.03.22.05.34q-.08.02-.17.04c-.15.04-.27.08-.4.16q-.07.04-.15.09l-.1-.05s.07-.04.11-.05q.14-.08.23-.23c.11-.16.22-.29.43-.29Z"/>
  <path d="M14.51,28.07c.03.21.06.41.1.62q-.4-.07-.81-.14.1-.1.23-.16c.12-.06.38-.32.49-.32Z"/>
  <path d="M17.62,28.31c.18-.02.26-.02.41.1.24.14.47.11.74.1q-.1.12-.24.24t-.36-.01-.55.06v-.48Z"/>
  <path d="M23.18,28.5c.14.02.23.04.36.13.16.09.24.06.41.02.08-.03.16-.06.24-.1.03.11.06.22.1.34.35.08.69.04,1.01-.13.03-.02.06-.04.09-.07-.07.22-.15.31-.34.43-.15.05-.31.08-.47.11-.04,0-.08.02-.13.03-.1.02-.21.04-.31.06v-.43l-.14.1q-.13,0-.28,0c-.24,0-.38.01-.58.15,0-.22,0-.41.05-.62Z"/>
  <path d="M13.26,28.65s.06.05.09.07c.21.1.4.11.63.12-.15.22-.28.29-.53.38-.04.03-.09.05-.13.08q-.11.06-.25.06c.02-.1.05-.2.07-.31.01-.06.03-.11.04-.17q.04-.15.08-.24Z"/>
  <path d="M19.01,28.89v.62c-.07,0-.14-.02-.22-.02-.16-.02-.32-.03-.48-.02q-.17,0-.31-.1s.08-.04.12-.06q.32-.16.63-.34.12-.08.26-.08Z"/>
  <path d="M25.28,29.08h.05v.67q-.07-.03-.15-.07c-.16-.07-.3-.1-.47-.12.09-.06.19-.13.29-.19.13-.09.2-.16.29-.29Z"/>
  <path d="M14.75,29.22q.1.05.15.19c.06.21.05.41.04.62-.14-.05-.24-.1-.36-.19-.18-.13-.39-.16-.6-.21-.13-.03-.25-.08-.38-.13v-.05s.09,0,.14,0q.54,0,1.01-.23Z"/>
  <path d="M23.08,29.51s.05.02.09.04c.3.12.59.21.91.25,0,.04,0,.09-.01.13,0,.05,0,.1.01.15.31.25.68.21,1.05.19.18-.02.35-.06.53-.1.15.21.21.43.28.67q.02.06.03.12s.02.07.03.11q.01.05.03.1c.02.11,0,.18-.03.29-.4.34-.93.34-1.42.35-.04,0-.08,0-.12,0-.28,0-.54-.02-.78-.2-.09-.13-.09-.19-.07-.34-.03,0-.05,0-.08,0-.29.01-.45-.03-.68-.2-.12-.18-.11-.26-.1-.48.04-.17.09-.33.14-.49.01-.04.03-.09.04-.13.05-.16.1-.32.15-.48Z"/>
  <path d="M17.57,29.56c.2.02.31.03.47.15.23.13.43.08.68.04-.1.15-.16.23-.34.28q-.14,0-.28-.04c-.25-.02-.4.02-.62.14,0-.08.01-.16.02-.23,0-.04,0-.09.01-.13q.02-.11.06-.21Z"/>
  <path d="M12.97,29.94s.08.04.12.06c.05.03.1.05.16.08.05.03.1.05.15.08.22.1.41.12.65.12q.07,0,.15,0t.15,0,.16,0c.13,0,.25,0,.38,0,.09.21.17.41.22.63.01.05.02.1.04.15q.03.13.03.27-1.65.52-2.18.32-.18-.12-.26-.22c-.09-.51.09-1.01.24-1.48Z"/>
  <path d="M17.43,30.23s.06.03.08.04c.51.25,1.08.26,1.64.15q.38.74.38,1.05c-.52.46-1.2.54-1.87.53-.19-.03-.33-.1-.48-.22-.14-.33-.02-.7.07-1.02q.02-.06.03-.12.08-.29.14-.41Z"/>
</svg>